<svg width="180" height="35" viewBox="0 0 180 35" fill="none" xmlns="http://www.w3.org/2000/svg">
<rect y="22" width="8" height="8" fill="#D71E28"/>
<rect y="12" width="8" height="8" fill="#D71E28"/>
<rect x="10" y="12" width="8" height="8" fill="#D71E28"/>
<rect y="2" width="8" height="8" fill="#D71E28"/>
<rect x="20" y="2" width="8" height="8" fill="#D71E28"/>
<rect x="20" y="12" width="8" height="8" fill="#D71E28"/>
<rect x="20" y="22" width="8" height="8" fill="#D71E28"/>
<rect x="10" y="22" width="8" height="8" fill="#D71E28"/>
<path d="M38.646 27V6.168L40.186 6.196C40.6433 6.196 41.11 6.182 41.586 6.154C42.062 6.11667 42.5753 6.084 43.126 6.056C43.6767 6.01867 44.2927 6 44.974 6C46.57 6 47.8813 6.20533 48.908 6.616C49.9347 7.02667 50.6953 7.60533 51.19 8.352C51.6847 9.08933 51.932 9.95733 51.932 10.956C51.932 11.6093 51.82 12.272 51.596 12.944C51.3813 13.616 51.0407 14.2087 50.574 14.722C50.1073 15.226 49.5053 15.576 48.768 15.772C49.6173 15.8187 50.378 16.08 51.05 16.556C51.7313 17.0227 52.2727 17.6247 52.674 18.362C53.0753 19.09 53.276 19.8833 53.276 20.742C53.276 22.002 53.024 23.1173 52.52 24.088C52.016 25.0587 51.1527 25.8193 49.93 26.37C48.7073 26.9207 47.0133 27.196 44.848 27.196C44.036 27.196 43.196 27.168 42.328 27.112C41.46 27.0653 40.774 27.028 40.27 27H38.646ZM41.894 15.086C42.146 15.1233 42.426 15.1513 42.734 15.17C43.042 15.1793 43.3593 15.184 43.686 15.184C44.0127 15.1747 44.3253 15.17 44.624 15.17C44.932 15.1607 45.212 15.156 45.464 15.156C46.416 15.156 47.2 14.848 47.816 14.232C48.4413 13.616 48.754 12.6733 48.754 11.404C48.754 10.3493 48.3807 9.57 47.634 9.066C46.8873 8.562 45.8187 8.31 44.428 8.31C44.26 8.31 43.994 8.31933 43.63 8.338C43.2753 8.34733 42.93 8.366 42.594 8.394C42.258 8.422 42.0247 8.45933 41.894 8.506V15.086ZM41.894 24.522C42.0527 24.6153 42.328 24.6853 42.72 24.732C43.112 24.7787 43.532 24.8113 43.98 24.83C44.4373 24.8393 44.8293 24.844 45.156 24.844C46.6587 24.844 47.8347 24.5687 48.684 24.018C49.5333 23.4673 49.958 22.4873 49.958 21.078C49.958 19.818 49.5753 18.9033 48.81 18.334C48.054 17.7553 46.8733 17.466 45.268 17.466C45.0067 17.466 44.7173 17.466 44.4 17.466C44.092 17.4567 43.7793 17.4567 43.462 17.466C43.154 17.466 42.8647 17.4707 42.594 17.48C42.3233 17.4893 42.09 17.508 41.894 17.536V24.522ZM57.0317 27V11.432H60.2517V27H57.0317ZM58.4597 8.674C57.9184 8.674 57.4424 8.50133 57.0317 8.156C56.6304 7.81067 56.4297 7.33933 56.4297 6.742C56.4297 6.33133 56.5417 5.96267 56.7657 5.636C56.9991 5.3 57.2931 5.034 57.6477 4.838C58.0024 4.63267 58.3711 4.53 58.7537 4.53C59.4164 4.53 59.9157 4.71667 60.2517 5.09C60.5877 5.46333 60.7557 5.92067 60.7557 6.462C60.7557 7.106 60.5224 7.638 60.0557 8.058C59.5984 8.46867 59.0664 8.674 58.4597 8.674ZM69.5175 27.224C68.7802 27.224 68.1315 27.1073 67.5715 26.874C67.0115 26.6407 66.5729 26.23 66.2555 25.642C65.9475 25.0447 65.7935 24.2 65.7935 23.108V13.784H63.7775V12.048C64.4682 11.852 64.9955 11.6887 65.3595 11.558C65.7235 11.418 65.9895 11.124 66.1575 10.676C66.2322 10.4707 66.3162 10.228 66.4095 9.948C66.5029 9.65867 66.6055 9.34133 66.7175 8.996C66.8295 8.64133 66.9509 8.25867 67.0815 7.848H69.0135V11.404H73.3815V13.784H69.0135V21.4C69.0135 22.408 69.0555 23.1453 69.1395 23.612C69.2329 24.0693 69.4009 24.3633 69.6435 24.494C69.8955 24.6153 70.2642 24.676 70.7495 24.676C71.0109 24.676 71.3095 24.648 71.6455 24.592C71.9909 24.5267 72.3175 24.4473 72.6255 24.354C72.9429 24.2607 73.1855 24.1627 73.3535 24.06L73.8855 25.908C73.6055 26.1227 73.2275 26.3327 72.7515 26.538C72.2849 26.734 71.7669 26.8973 71.1975 27.028C70.6375 27.1587 70.0775 27.224 69.5175 27.224ZM77.2554 27V6.168L78.7954 6.196C79.2527 6.196 79.7194 6.182 80.1954 6.154C80.6714 6.11667 81.1847 6.084 81.7354 6.056C82.286 6.01867 82.902 6 83.5834 6C85.1794 6 86.4907 6.20533 87.5174 6.616C88.544 7.02667 89.3047 7.60533 89.7994 8.352C90.294 9.08933 90.5414 9.95733 90.5414 10.956C90.5414 11.6093 90.4294 12.272 90.2054 12.944C89.9907 13.616 89.65 14.2087 89.1834 14.722C88.7167 15.226 88.1147 15.576 87.3774 15.772C88.2267 15.8187 88.9874 16.08 89.6594 16.556C90.3407 17.0227 90.882 17.6247 91.2834 18.362C91.6847 19.09 91.8854 19.8833 91.8854 20.742C91.8854 22.002 91.6334 23.1173 91.1294 24.088C90.6254 25.0587 89.762 25.8193 88.5394 26.37C87.3167 26.9207 85.6227 27.196 83.4574 27.196C82.6454 27.196 81.8054 27.168 80.9374 27.112C80.0694 27.0653 79.3834 27.028 78.8794 27H77.2554ZM80.5034 15.086C80.7554 15.1233 81.0354 15.1513 81.3434 15.17C81.6514 15.1793 81.9687 15.184 82.2954 15.184C82.622 15.1747 82.9347 15.17 83.2334 15.17C83.5414 15.1607 83.8214 15.156 84.0734 15.156C85.0254 15.156 85.8094 14.848 86.4254 14.232C87.0507 13.616 87.3634 12.6733 87.3634 11.404C87.3634 10.3493 86.99 9.57 86.2434 9.066C85.4967 8.562 84.428 8.31 83.0374 8.31C82.8694 8.31 82.6034 8.31933 82.2394 8.338C81.8847 8.34733 81.5394 8.366 81.2034 8.394C80.8674 8.422 80.634 8.45933 80.5034 8.506V15.086ZM80.5034 24.522C80.662 24.6153 80.9374 24.6853 81.3294 24.732C81.7214 24.7787 82.1414 24.8113 82.5894 24.83C83.0467 24.8393 83.4387 24.844 83.7654 24.844C85.268 24.844 86.444 24.5687 87.2934 24.018C88.1427 23.4673 88.5674 22.4873 88.5674 21.078C88.5674 19.818 88.1847 18.9033 87.4194 18.334C86.6634 17.7553 85.4827 17.466 83.8774 17.466C83.616 17.466 83.3267 17.466 83.0094 17.466C82.7014 17.4567 82.3887 17.4567 82.0714 17.466C81.7634 17.466 81.474 17.4707 81.2034 17.48C80.9327 17.4893 80.6994 17.508 80.5034 17.536V24.522ZM95.0531 33.72V31.088C95.2118 31.144 95.4404 31.1907 95.7391 31.228C96.0471 31.2653 96.2758 31.284 96.4251 31.284C96.8171 31.284 97.2838 31.172 97.8251 30.948C98.3664 30.7333 98.8844 30.29 99.3791 29.618C99.8831 28.9553 100.27 27.952 100.541 26.608L100.737 27H99.3931L93.8211 11.404H97.2931L100.541 21.512L101.857 25.88H101.017L102.165 21.512L104.937 11.404H108.409L103.229 27.476C102.613 29.352 101.88 30.7847 101.031 31.774C100.182 32.7727 99.2531 33.412 98.2451 33.692C98.0491 33.7573 97.7924 33.8133 97.4751 33.86C97.1578 33.916 96.8918 33.944 96.6771 33.944C96.5371 33.944 96.3504 33.93 96.1171 33.902C95.8838 33.8833 95.6598 33.8553 95.4451 33.818C95.2398 33.79 95.1091 33.7573 95.0531 33.72ZM111.189 27V6.168L112.729 6.196C113.186 6.196 113.653 6.182 114.129 6.154C114.605 6.11667 115.118 6.084 115.669 6.056C116.22 6.01867 116.836 6 117.517 6C119.113 6 120.424 6.20533 121.451 6.616C122.478 7.02667 123.238 7.60533 123.733 8.352C124.228 9.08933 124.475 9.95733 124.475 10.956C124.475 11.6093 124.363 12.272 124.139 12.944C123.924 13.616 123.584 14.2087 123.117 14.722C122.65 15.226 122.048 15.576 121.311 15.772C122.16 15.8187 122.921 16.08 123.593 16.556C124.274 17.0227 124.816 17.6247 125.217 18.362C125.618 19.09 125.819 19.8833 125.819 20.742C125.819 22.002 125.567 23.1173 125.063 24.088C124.559 25.0587 123.696 25.8193 122.473 26.37C121.25 26.9207 119.556 27.196 117.391 27.196C116.579 27.196 115.739 27.168 114.871 27.112C114.003 27.0653 113.317 27.028 112.813 27H111.189ZM114.437 15.086C114.689 15.1233 114.969 15.1513 115.277 15.17C115.585 15.1793 115.902 15.184 116.229 15.184C116.556 15.1747 116.868 15.17 117.167 15.17C117.475 15.1607 117.755 15.156 118.007 15.156C118.959 15.156 119.743 14.848 120.359 14.232C120.984 13.616 121.297 12.6733 121.297 11.404C121.297 10.3493 120.924 9.57 120.177 9.066C119.43 8.562 118.362 8.31 116.971 8.31C116.803 8.31 116.537 8.31933 116.173 8.338C115.818 8.34733 115.473 8.366 115.137 8.394C114.801 8.422 114.568 8.45933 114.437 8.506V15.086ZM114.437 24.522C114.596 24.6153 114.871 24.6853 115.263 24.732C115.655 24.7787 116.075 24.8113 116.523 24.83C116.98 24.8393 117.372 24.844 117.699 24.844C119.202 24.844 120.378 24.5687 121.227 24.018C122.076 23.4673 122.501 22.4873 122.501 21.078C122.501 19.818 122.118 18.9033 121.353 18.334C120.597 17.7553 119.416 17.466 117.811 17.466C117.55 17.466 117.26 17.466 116.943 17.466C116.635 17.4567 116.322 17.4567 116.005 17.466C115.697 17.466 115.408 17.4707 115.137 17.48C114.866 17.4893 114.633 17.508 114.437 17.536V24.522ZM129.575 27V11.432H132.795V27H129.575ZM131.003 8.674C130.461 8.674 129.985 8.50133 129.575 8.156C129.173 7.81067 128.973 7.33933 128.973 6.742C128.973 6.33133 129.085 5.96267 129.309 5.636C129.542 5.3 129.836 5.034 130.191 4.838C130.545 4.63267 130.914 4.53 131.297 4.53C131.959 4.53 132.459 4.71667 132.795 5.09C133.131 5.46333 133.299 5.92067 133.299 6.462C133.299 7.106 133.065 7.638 132.599 8.058C132.141 8.46867 131.609 8.674 131.003 8.674ZM142.061 27.224C141.323 27.224 140.675 27.1073 140.115 26.874C139.555 26.6407 139.116 26.23 138.799 25.642C138.491 25.0447 138.337 24.2 138.337 23.108V13.784H136.321V12.048C137.011 11.852 137.539 11.6887 137.903 11.558C138.267 11.418 138.533 11.124 138.701 10.676C138.775 10.4707 138.859 10.228 138.953 9.948C139.046 9.65867 139.149 9.34133 139.261 8.996C139.373 8.64133 139.494 8.25867 139.625 7.848H141.557V11.404H145.925V13.784H141.557V21.4C141.557 22.408 141.599 23.1453 141.683 23.612C141.776 24.0693 141.944 24.3633 142.187 24.494C142.439 24.6153 142.807 24.676 143.293 24.676C143.554 24.676 143.853 24.648 144.189 24.592C144.534 24.5267 144.861 24.4473 145.169 24.354C145.486 24.2607 145.729 24.1627 145.897 24.06L146.429 25.908C146.149 26.1227 145.771 26.3327 145.295 26.538C144.828 26.734 144.31 26.8973 143.741 27.028C143.181 27.1587 142.621 27.224 142.061 27.224ZM151.212 27.308C150.652 27.308 150.167 27.1027 149.756 26.692C149.346 26.272 149.131 25.754 149.112 25.138C149.103 24.6807 149.206 24.2653 149.42 23.892C149.644 23.5187 149.934 23.22 150.288 22.996C150.643 22.772 151.016 22.66 151.408 22.66C152.09 22.66 152.608 22.8747 152.962 23.304C153.317 23.7333 153.499 24.2373 153.508 24.816C153.527 25.2827 153.429 25.7073 153.214 26.09C153 26.4633 152.715 26.762 152.36 26.986C152.006 27.2007 151.623 27.308 151.212 27.308ZM161.596 27.224C160.663 27.224 159.832 27.042 159.104 26.678C158.386 26.3047 157.816 25.782 157.396 25.11C156.986 24.4287 156.78 23.626 156.78 22.702C156.78 21.7033 157.046 20.8587 157.578 20.168C158.12 19.468 158.843 18.922 159.748 18.53C160.346 18.2873 160.994 18.096 161.694 17.956C162.394 17.8067 163.094 17.704 163.794 17.648C164.494 17.5827 165.143 17.55 165.74 17.55L166.412 18.404L165.74 19.538C165.376 19.538 164.938 19.566 164.424 19.622C163.92 19.6687 163.421 19.748 162.926 19.86C162.432 19.9627 162.012 20.098 161.666 20.266C161.19 20.4807 160.794 20.756 160.476 21.092C160.159 21.428 160 21.8947 160 22.492C160 23.276 160.215 23.8687 160.644 24.27C161.083 24.6713 161.732 24.872 162.59 24.872C163.029 24.872 163.472 24.8067 163.92 24.676C164.368 24.5453 164.756 24.396 165.082 24.228C165.418 24.06 165.638 23.9153 165.74 23.794L166.384 24.48L165.922 25.684C165.512 26.0573 164.919 26.4073 164.144 26.734C163.37 27.0607 162.52 27.224 161.596 27.224ZM168.974 27H165.922V24.676H165.74V16.08C165.74 15.1653 165.498 14.5633 165.012 14.274C164.536 13.9753 163.855 13.826 162.968 13.826C162.38 13.826 161.774 13.8867 161.148 14.008C160.523 14.12 159.949 14.2647 159.426 14.442C158.904 14.61 158.502 14.7827 158.222 14.96L157.466 12.636C157.681 12.5053 158.092 12.3233 158.698 12.09C159.314 11.8567 160.028 11.6467 160.84 11.46C161.662 11.264 162.474 11.166 163.276 11.166C164.443 11.166 165.451 11.3013 166.3 11.572C167.159 11.8427 167.817 12.3467 168.274 13.084C168.741 13.812 168.974 14.8713 168.974 16.262V27ZM173.653 27V11.432H176.873V27H173.653ZM175.081 8.674C174.539 8.674 174.063 8.50133 173.653 8.156C173.251 7.81067 173.051 7.33933 173.051 6.742C173.051 6.33133 173.163 5.96267 173.387 5.636C173.62 5.3 173.914 5.034 174.269 4.838C174.623 4.63267 174.992 4.53 175.375 4.53C176.037 4.53 176.537 4.71667 176.873 5.09C177.209 5.46333 177.377 5.92067 177.377 6.462C177.377 7.106 177.143 7.638 176.677 8.058C176.219 8.46867 175.687 8.674 175.081 8.674Z" fill="#D71E28"/>
</svg>
